<svg version="1.1" id="Layer_1" xmlns="http://www.w3.org/2000/svg" xmlns:xlink="http://www.w3.org/1999/xlink" x="0px" y="0px"
	 width="100%" viewBox="0 0 320 320" enable-background="new 0 0 320 320" xml:space="preserve">
<path fill="#000000" opacity="1.000000" stroke="none" 
	d="
M173.000000,321.000000 
	C115.333344,321.000000 58.166687,321.000000 1.000023,321.000000 
	C1.000015,214.333359 1.000015,107.666725 1.000008,1.000066 
	C107.666618,1.000044 214.333237,1.000044 320.999878,1.000022 
	C320.999939,107.666595 320.999939,214.333191 320.999969,320.999878 
	C271.833344,321.000000 222.666672,321.000000 173.000000,321.000000 
M107.054276,239.339737 
	C107.187622,239.680069 107.436714,239.840347 108.479240,240.129990 
	C113.952354,242.768188 119.425468,245.406387 125.175064,248.704895 
	C131.123611,251.510300 137.072159,254.315704 143.152328,257.054199 
	C143.152328,257.054199 143.087036,256.921783 143.176453,257.341980 
	C143.176453,257.341980 143.465866,257.681427 143.465866,257.681427 
	C143.465866,257.681427 143.912842,257.659332 144.523438,258.081573 
	C162.734924,267.395203 180.946411,276.708862 199.310196,286.723938 
	C205.446030,289.828033 211.558228,292.980377 217.733368,296.004150 
	C219.393219,296.816956 221.244537,297.238708 223.636047,298.194427 
	C234.097870,303.483276 244.524673,308.844208 255.067154,313.967041 
	C256.343353,314.587158 258.243927,313.922485 260.736267,313.677032 
	C260.821106,313.188507 260.979980,312.699982 260.980194,312.211426 
	C260.994049,279.901581 261.006073,247.591705 260.953186,215.281952 
	C260.951233,214.101486 260.301025,212.922073 259.712952,211.137222 
	C257.424805,209.377609 255.328720,207.255920 252.814575,205.922394 
	C243.049210,200.742691 233.146210,195.822861 223.303391,190.788757 
	C209.198166,183.574661 195.100800,176.345215 180.296677,168.990402 
	C178.224701,167.927063 176.152710,166.863724 173.706207,165.229889 
	C172.159622,164.392853 170.613022,163.555817 169.310028,162.265396 
	C169.620956,161.856277 169.931885,161.447159 170.955536,161.011948 
	C179.706497,156.559479 188.457458,152.107025 197.848801,147.285294 
	C203.943619,144.193558 210.038422,141.101822 216.854340,138.021759 
	C229.171890,131.711014 241.517578,125.453918 253.773636,119.025909 
	C255.422424,118.161148 256.619537,116.435165 258.735474,115.016785 
	C259.195526,114.363632 259.655579,113.710480 260.050903,113.037750 
	C260.050903,113.037750 260.067352,113.103348 260.842316,112.677063 
	C260.891266,79.935875 260.947571,47.194679 260.948456,14.453488 
	C260.948486,13.608140 260.342163,12.762776 259.996887,12.009724 
	C259.996887,12.009724 260.089172,12.031578 259.828583,11.529023 
	C259.304260,11.412826 258.779968,11.296628 257.447937,11.005956 
	C252.968842,12.824036 248.347183,14.357947 244.040009,16.518721 
	C234.765015,21.171669 225.692520,26.226381 216.460922,30.968252 
	C207.186859,35.731930 197.816208,40.307365 188.495377,44.980209 
	C179.220840,49.629837 169.964066,54.314903 160.683868,58.953175 
	C151.828033,63.379353 142.952072,67.765236 133.332642,72.002663 
	C127.203743,75.308289 121.074844,78.613907 114.291710,82.187141 
	C106.379982,86.178352 98.429451,90.094910 90.566978,94.180916 
	C81.996361,98.634941 73.507401,103.246086 64.263069,107.915176 
	C63.433201,108.272064 62.603336,108.628952 61.345875,109.134216 
	C61.081459,109.327545 60.949635,109.587975 60.187222,110.356323 
	C60.177818,142.273376 60.168419,174.190430 59.986912,206.971817 
	C59.980396,208.893051 59.728832,210.857178 60.055061,212.720154 
	C60.266285,213.926346 61.322174,214.984634 62.292416,216.737076 
	C64.826355,217.885223 67.360298,219.033356 70.283653,220.747177 
	C72.524681,221.806168 74.765717,222.865143 77.642990,224.243713 
	C79.379440,224.848572 81.115898,225.453415 83.150757,226.701294 
	C86.397850,228.480087 89.644943,230.258881 93.144707,232.723648 
	C97.764862,234.848373 102.385017,236.973099 107.093445,238.964081 
	C107.093445,238.964081 106.960320,238.874893 107.054276,239.339737 
z"/>
<path fill="#02A787" opacity="1.000000" stroke="none" 
	d="
M197.208420,147.654572 
	C188.457458,152.107025 179.706497,156.559479 170.326111,160.861481 
	C168.213226,160.688721 166.729782,160.666443 165.086456,160.352844 
	C163.025360,158.776840 161.239151,157.263107 159.205597,156.241882 
	C129.653900,141.401459 100.058960,126.647087 70.514465,111.792366 
	C68.507072,110.783058 66.819283,109.138069 64.982841,107.788727 
	C73.507401,103.246086 81.996361,98.634941 90.566978,94.180916 
	C98.429451,90.094910 106.379982,86.178352 114.993179,82.089737 
	C121.824760,78.717842 127.954857,75.443344 134.084961,72.168839 
	C142.952072,67.765236 151.828033,63.379353 160.683868,58.953175 
	C169.964066,54.314903 179.220840,49.629837 188.495377,44.980209 
	C197.816208,40.307365 207.186859,35.731930 216.460922,30.968252 
	C225.692520,26.226381 234.765015,21.171669 244.040009,16.518721 
	C248.347183,14.357947 252.968842,12.824036 258.058655,11.237537 
	C259.142670,11.656606 259.615906,11.844092 260.089172,12.031578 
	C260.089172,12.031578 259.996887,12.009724 259.929993,12.432003 
	C259.833893,43.638550 259.797424,74.422813 259.788544,105.207085 
	C259.787781,107.839149 259.970093,110.471260 260.067352,113.103348 
	C260.067352,113.103348 260.050903,113.037750 259.744232,112.935608 
	C258.966980,113.591644 258.496399,114.349815 258.025787,115.107971 
	C256.619537,116.435165 255.422424,118.161148 253.773636,119.025909 
	C241.517578,125.453918 229.171890,131.711014 216.115540,137.929016 
	C209.320633,141.109024 203.264526,144.381790 197.208420,147.654572 
z"/>
<path fill="#2C68B0" opacity="1.000000" stroke="none" 
	d="
M92.892036,232.037674 
	C89.644943,230.258881 86.397850,228.480087 83.372658,226.327896 
	C86.107056,224.717453 88.683212,223.593719 91.121216,222.224075 
	C102.680786,215.730057 114.139153,209.053558 125.753242,202.659454 
	C142.144928,193.635056 158.705597,184.915512 175.025467,175.765030 
	C177.485214,174.385849 179.031342,171.377213 181.000076,169.122314 
	C195.100800,176.345215 209.198166,183.574661 223.303391,190.788757 
	C233.146210,195.822861 243.049210,200.742691 252.814575,205.922394 
	C255.328720,207.255920 257.424805,209.377609 259.756622,211.922607 
	C259.818573,246.423065 259.836823,280.138153 259.855103,313.853241 
	C258.243927,313.922485 256.343353,314.587158 255.067154,313.967041 
	C244.524673,308.844208 234.097870,303.483276 223.200836,297.711426 
	C214.896362,293.493103 207.027130,289.757812 199.157883,286.022522 
	C180.946411,276.708862 162.734924,267.395203 143.872498,258.081818 
	C143.176727,257.695312 143.131882,257.308533 143.087036,256.921783 
	C143.087036,256.921783 143.152328,257.054199 142.934875,256.775726 
	C136.777802,253.679688 130.838196,250.862137 124.898590,248.044586 
	C119.425468,245.406387 113.952354,242.768188 107.984581,239.810760 
	C107.086197,239.482452 106.909660,239.276917 106.960320,238.874893 
	C106.960320,238.874893 107.093445,238.964081 106.984695,238.684586 
	C102.214638,236.282623 97.553337,234.160141 92.892036,232.037674 
z"/>
<path fill="#2861A7" opacity="1.000000" stroke="none" 
	d="
M180.648376,169.056366 
	C179.031342,171.377213 177.485214,174.385849 175.025467,175.765030 
	C158.705597,184.915512 142.144928,193.635056 125.753242,202.659454 
	C114.139153,209.053558 102.680786,215.730057 91.121216,222.224075 
	C88.683212,223.593719 86.107056,224.717453 83.223450,226.006378 
	C81.115898,225.453415 79.379440,224.848572 77.415955,223.759232 
	C81.444016,220.525452 85.602158,217.609985 89.973167,215.059326 
	C101.155945,208.533661 112.358604,202.034744 123.692215,195.776718 
	C137.628525,188.081558 151.777649,180.770035 165.667389,172.993729 
	C168.824646,171.226135 171.294479,168.230682 174.080719,165.800385 
	C176.152710,166.863724 178.224701,167.927063 180.648376,169.056366 
z"/>
<path fill="#265A9C" opacity="1.000000" stroke="none" 
	d="
M173.893463,165.515137 
	C171.294479,168.230682 168.824646,171.226135 165.667389,172.993729 
	C151.777649,180.770035 137.628525,188.081558 123.692215,195.776718 
	C112.358604,202.034744 101.155945,208.533661 89.973167,215.059326 
	C85.602158,217.609985 81.444016,220.525452 77.097839,223.599426 
	C74.765717,222.865143 72.524681,221.806168 70.360855,220.234070 
	C82.488884,213.074539 94.571205,206.484406 106.582024,199.766434 
	C119.613419,192.477646 132.596878,185.102371 145.548889,177.673477 
	C147.199387,176.726791 148.533859,175.229126 150.234253,173.816483 
	C150.964279,173.432388 151.474808,173.218506 152.240051,173.134796 
	C153.661285,172.497375 154.827789,171.729767 156.244812,170.743652 
	C158.323334,169.682068 160.151352,168.839005 162.185547,168.100037 
	C162.932114,167.806442 163.472519,167.408783 164.272202,166.837067 
	C165.303268,165.522049 166.075058,164.381042 167.218872,163.160278 
	C168.082718,162.959930 168.574570,162.839371 169.066422,162.718811 
	C170.613022,163.555817 172.159622,164.392853 173.893463,165.515137 
z"/>
<path fill="#255690" opacity="1.000000" stroke="none" 
	d="
M150.014740,173.986694 
	C148.533859,175.229126 147.199387,176.726791 145.548889,177.673477 
	C132.596878,185.102371 119.613419,192.477646 106.582024,199.766434 
	C94.571205,206.484406 82.488884,213.074539 70.166145,219.951233 
	C67.360298,219.033356 64.826355,217.885223 62.095547,216.286041 
	C61.898678,215.834991 61.988583,215.556854 62.234955,215.542358 
	C62.921551,215.296906 63.361778,215.065933 64.110313,214.927277 
	C66.278305,214.519012 68.283943,214.312668 69.975662,213.473495 
	C93.452423,201.827789 116.893066,190.109116 140.316452,178.356277 
	C142.070312,177.476257 143.625610,176.200500 145.619293,175.070770 
	C147.315155,174.684128 148.664948,174.335403 150.014740,173.986694 
z"/>
<path fill="#27A296" opacity="1.000000" stroke="none" 
	d="
M64.622955,107.851952 
	C66.819283,109.138069 68.507072,110.783058 70.514465,111.792366 
	C100.058960,126.647087 129.653900,141.401459 159.205597,156.241882 
	C161.239151,157.263107 163.025360,158.776840 165.031647,160.436676 
	C165.136719,160.811813 165.020401,160.971024 164.665207,160.906509 
	C161.012558,159.304169 157.692078,157.813599 154.421738,156.220154 
	C141.950348,150.143600 129.495148,144.033905 116.787003,137.710968 
	C114.693588,136.668686 112.847061,135.852020 110.772881,134.773376 
	C108.357994,133.716751 106.170753,132.922119 103.816078,132.022278 
	C103.648643,131.917068 103.253281,131.908005 103.084305,131.617462 
	C101.616333,130.540848 100.317329,129.754791 98.786835,128.693451 
	C96.749626,127.867287 94.943909,127.316406 93.131088,126.832947 
	C93.123985,126.900375 93.259026,126.912827 93.146957,126.654602 
	C92.691544,126.295906 92.348190,126.195435 91.849464,125.986053 
	C91.694092,125.877144 91.314667,125.884384 91.192566,125.608360 
	C90.711960,125.227104 90.353447,125.121872 89.828133,124.931549 
	C89.661331,124.846451 89.289825,124.893730 89.172134,124.621460 
	C88.703514,124.243950 88.352577,124.138710 87.825256,123.950363 
	C87.648880,123.867264 87.260178,123.898445 87.173325,123.585098 
	C86.401871,122.834946 85.717278,122.398155 84.802994,121.701965 
	C83.086456,120.792336 81.599609,120.142105 79.889709,119.243988 
	C73.793541,116.124962 67.920418,113.253822 62.022747,110.402298 
	C61.998196,110.421913 62.049053,110.458832 62.019089,110.083298 
	C61.917240,109.467125 61.845356,109.226479 61.773472,108.985840 
	C62.603336,108.628952 63.433201,108.272064 64.622955,107.851952 
z"/>
<path fill="#EFDB9E" opacity="1.000000" stroke="none" 
	d="
M62.049053,110.458832 
	C62.049053,110.458832 61.998196,110.421913 61.940590,110.830627 
	C61.909477,111.816147 61.935974,112.392937 61.904678,113.438385 
	C61.893387,123.590416 61.939888,133.273804 61.912369,143.425537 
	C61.869576,156.883499 61.900803,169.873093 61.856781,183.335114 
	C61.689987,191.184616 61.598434,198.561722 61.279804,205.939011 
	C60.754082,205.991379 60.456181,206.047470 60.159016,206.107483 
	C60.168419,174.190430 60.177818,142.273376 60.840836,110.276810 
	C61.679317,110.284477 61.864185,110.371658 62.049053,110.458832 
z"/>
<path fill="#9CB9DB" opacity="1.000000" stroke="none" 
	d="
M260.295654,313.765137 
	C259.836823,280.138153 259.818573,246.423065 259.876617,212.225067 
	C260.301025,212.922073 260.951233,214.101486 260.953186,215.281952 
	C261.006073,247.591705 260.994049,279.901581 260.980194,312.211426 
	C260.979980,312.699982 260.821106,313.188507 260.295654,313.765137 
z"/>
<path fill="#8DD8C9" opacity="1.000000" stroke="none" 
	d="
M260.454834,112.890205 
	C259.970093,110.471260 259.787781,107.839149 259.788544,105.207085 
	C259.797424,74.422813 259.833893,43.638550 259.940857,12.385851 
	C260.342163,12.762776 260.948486,13.608140 260.948456,14.453488 
	C260.947571,47.194679 260.891266,79.935875 260.454834,112.890205 
z"/>
<path fill="#B7CBE4" opacity="1.000000" stroke="none" 
	d="
M199.234039,286.373230 
	C207.027130,289.757812 214.896362,293.493103 222.886780,297.534180 
	C221.244537,297.238708 219.393219,296.816956 217.733368,296.004150 
	C211.558228,292.980377 205.446030,289.828033 199.234039,286.373230 
z"/>
<path fill="#A9E0D5" opacity="1.000000" stroke="none" 
	d="
M197.528610,147.469940 
	C203.264526,144.381790 209.320633,141.109024 215.754974,137.923157 
	C210.038422,141.101822 203.943619,144.193558 197.528610,147.469940 
z"/>
<path fill="#A9E0D5" opacity="1.000000" stroke="none" 
	d="
M133.708801,72.085754 
	C127.954857,75.443344 121.824760,78.717842 115.320297,81.955933 
	C121.074844,78.613907 127.203743,75.308289 133.708801,72.085754 
z"/>
<path fill="#B7CBE4" opacity="1.000000" stroke="none" 
	d="
M125.036835,248.374725 
	C130.838196,250.862137 136.777802,253.679688 142.869049,256.809174 
	C137.072159,254.315704 131.123611,251.510300 125.036835,248.374725 
z"/>
<path fill="#A7C0DE" opacity="1.000000" stroke="none" 
	d="
M93.018372,232.380661 
	C97.553337,234.160141 102.214638,236.282623 106.940552,238.751465 
	C102.385017,236.973099 97.764862,234.848373 93.018372,232.380661 
z"/>
<path fill="#DEC175" opacity="1.000000" stroke="none" 
	d="
M60.072964,206.539642 
	C60.456181,206.047470 60.754082,205.991379 61.382080,206.375183 
	C61.803818,209.726395 61.896202,212.641617 61.988583,215.556854 
	C61.988583,215.556854 61.898678,215.834991 61.949127,215.972092 
	C61.322174,214.984634 60.266285,213.926346 60.055061,212.720154 
	C59.728832,210.857178 59.980396,208.893051 60.072964,206.539642 
z"/>
<path fill="#27A296" opacity="1.000000" stroke="none" 
	d="
M169.188232,162.492096 
	C168.574570,162.839371 168.082718,162.959930 167.032623,163.053314 
	C166.474365,163.026154 166.101929,162.809052 165.969025,162.579468 
	C165.564224,161.890274 165.292313,161.430649 165.020401,160.971024 
	C165.020401,160.971024 165.136719,160.811813 165.191528,160.727997 
	C166.729782,160.666443 168.213226,160.688721 169.969742,160.874512 
	C169.931885,161.447159 169.620956,161.856277 169.188232,162.492096 
z"/>
<path fill="#8DD8C9" opacity="1.000000" stroke="none" 
	d="
M258.380615,115.062378 
	C258.496399,114.349815 258.966980,113.591644 259.776611,112.945396 
	C259.655579,113.710480 259.195526,114.363632 258.380615,115.062378 
z"/>
<path fill="#8DD8C9" opacity="1.000000" stroke="none" 
	d="
M259.958862,11.780301 
	C259.615906,11.844092 259.142670,11.656606 258.462524,11.324776 
	C258.779968,11.296628 259.304260,11.412826 259.958862,11.780301 
z"/>
<path fill="#DEC175" opacity="1.000000" stroke="none" 
	d="
M62.019089,110.083298 
	C61.864185,110.371658 61.679317,110.284477 61.222427,110.056396 
	C60.949635,109.587975 61.081459,109.327545 61.559673,109.060028 
	C61.845356,109.226479 61.917240,109.467125 62.019089,110.083298 
z"/>
<path fill="#B7CBE4" opacity="1.000000" stroke="none" 
	d="
M143.131744,257.131897 
	C143.131882,257.308533 143.176727,257.695312 143.567200,257.870697 
	C143.912842,257.659332 143.465866,257.681427 143.465866,257.681427 
	C143.465866,257.681427 143.176453,257.341980 143.131744,257.131897 
z"/>
<path fill="#A7C0DE" opacity="1.000000" stroke="none" 
	d="
M107.007294,239.107315 
	C106.909660,239.276917 107.086197,239.482452 107.645737,239.656036 
	C107.436714,239.840347 107.187622,239.680069 107.007294,239.107315 
z"/>
<path fill="#1D42A0" opacity="1.000000" stroke="none" 
	d="
M166.101929,162.809052 
	C166.101929,162.809052 166.474365,163.026154 166.660614,163.133102 
	C166.075058,164.381042 165.303268,165.522049 163.996185,166.910690 
	C162.967056,167.437546 162.473221,167.716751 161.979385,167.995956 
	C160.151352,168.839005 158.323334,169.682068 155.927933,170.825623 
	C154.235474,171.752274 153.110397,172.378448 151.985321,173.004608 
	C151.474808,173.218506 150.964279,173.432388 150.234253,173.816483 
	C148.664948,174.335403 147.315155,174.684128 145.204117,175.032379 
	C143.894821,174.985916 143.346756,174.939911 143.034195,174.633835 
	C150.880432,170.518875 158.491180,166.663956 166.101929,162.809052 
z"/>
<path fill="#255690" opacity="1.000000" stroke="none" 
	d="
M152.240051,173.134796 
	C153.110397,172.378448 154.235474,171.752274 155.677429,171.044128 
	C154.827789,171.729767 153.661285,172.497375 152.240051,173.134796 
z"/>
<path fill="#255690" opacity="1.000000" stroke="none" 
	d="
M162.185547,168.100037 
	C162.473221,167.716751 162.967056,167.437546 163.736908,167.084717 
	C163.472519,167.408783 162.932114,167.806442 162.185547,168.100037 
z"/>
<path fill="#16369D" opacity="1.000000" stroke="none" 
	d="
M142.798706,174.893890 
	C143.346756,174.939911 143.894821,174.985916 144.858047,175.070328 
	C143.625610,176.200500 142.070312,177.476257 140.316452,178.356277 
	C116.893066,190.109116 93.452423,201.827789 69.975662,213.473495 
	C68.283943,214.312668 66.278305,214.519012 64.191803,214.644989 
	C64.287735,213.781418 64.610497,213.292450 65.308456,212.870544 
	C69.498344,211.120621 73.313034,209.303604 77.299454,207.557861 
	C77.727455,207.479904 77.808090,207.264786 78.050491,206.851257 
	C78.599670,206.602371 78.811447,206.485962 79.350616,206.341949 
	C80.394089,205.938339 81.103157,205.548264 81.827248,205.188400 
	C102.150131,195.088364 122.474541,184.991379 142.798706,174.893890 
z"/>
<path fill="#C19510" opacity="1.000000" stroke="none" 
	d="
M64.933258,212.803482 
	C64.610497,213.292450 64.287735,213.781418 63.883492,214.552673 
	C63.361778,215.065933 62.921551,215.296906 62.234955,215.542358 
	C61.896202,212.641617 61.803818,209.726395 61.609158,206.374985 
	C61.598434,198.561722 61.689987,191.184616 62.182396,183.555679 
	C63.053112,184.979645 63.769981,186.629440 63.949860,188.335815 
	C64.708603,195.533615 65.307274,202.748291 65.755798,210.085312 
	C65.342491,211.077042 65.137878,211.940262 64.933258,212.803482 
z"/>
<path fill="#FED101" opacity="1.000000" stroke="none" 
	d="
M87.260178,123.898445 
	C87.260178,123.898445 87.648880,123.867264 88.028053,124.111328 
	C88.701424,124.534843 88.995628,124.714287 89.289825,124.893730 
	C89.289825,124.893730 89.661331,124.846451 90.035896,125.094597 
	C90.711861,125.523293 91.013268,125.703842 91.314667,125.884384 
	C91.314667,125.884384 91.694092,125.877144 92.046898,126.138763 
	C92.686142,126.571198 92.972580,126.742012 93.259026,126.912827 
	C93.259026,126.912827 93.123985,126.900375 93.233986,127.155121 
	C94.891586,128.274353 96.439186,129.138840 98.115128,130.251343 
	C98.500870,130.994705 98.758286,131.490051 98.977768,132.368698 
	C98.542503,135.505173 97.854599,138.252441 97.798180,141.012589 
	C97.554947,152.913132 97.096626,164.833160 97.563698,176.712799 
	C97.756851,181.625610 95.452866,187.948120 101.821655,191.390045 
	C96.487617,194.156937 91.356140,196.664200 85.827469,199.098053 
	C84.290489,197.290298 82.250038,195.603012 82.156639,193.814041 
	C81.536530,181.936813 81.305054,170.038528 81.002403,158.145691 
	C80.674522,145.261887 80.406746,132.376541 80.112762,119.491875 
	C81.599609,120.142105 83.086456,120.792336 84.929062,121.986938 
	C85.943268,122.987030 86.601723,123.442734 87.260178,123.898445 
z"/>
<path fill="#FFDC00" opacity="1.000000" stroke="none" 
	d="
M102.024216,191.130432 
	C95.452866,187.948120 97.756851,181.625610 97.563698,176.712799 
	C97.096626,164.833160 97.554947,152.913132 97.798180,141.012589 
	C97.854599,138.252441 98.542503,135.505173 99.401123,132.368347 
	C100.992699,131.959122 102.122986,131.933563 103.253281,131.908005 
	C103.253281,131.908005 103.648643,131.917068 103.955093,132.320602 
	C106.507881,133.494553 108.754204,134.264954 111.000526,135.035370 
	C112.847061,135.852020 114.693588,136.668686 116.588737,137.777222 
	C117.745689,139.365189 118.854012,140.661301 119.869858,142.327850 
	C116.304573,152.311646 117.657097,162.297348 117.573822,172.160828 
	C117.541321,176.010818 118.341820,179.684219 121.645920,182.184143 
	C114.904999,185.280502 108.464607,188.205475 102.024216,191.130432 
z"/>
<path fill="#F7C707" opacity="1.000000" stroke="none" 
	d="
M79.889709,119.243988 
	C80.406746,132.376541 80.674522,145.261887 81.002403,158.145691 
	C81.305054,170.038528 81.536530,181.936813 82.156639,193.814041 
	C82.250038,195.603012 84.290489,197.290298 85.636543,199.372421 
	C83.569611,201.936676 81.296410,204.153122 79.023209,206.369568 
	C78.811447,206.485962 78.599670,206.602371 77.942169,206.921814 
	C77.355591,207.227142 77.232681,207.347733 77.127724,207.486603 
	C73.313034,209.303604 69.498344,211.120621 65.308456,212.870544 
	C65.137878,211.940262 65.342491,211.077042 66.059349,209.966949 
	C68.032875,208.803162 69.494171,207.886261 71.234238,206.901215 
	C72.010742,206.556030 72.508461,206.278992 73.339111,205.893799 
	C74.221390,204.256851 75.332191,202.690598 75.233063,201.205063 
	C74.261604,186.647568 73.102165,172.102493 71.968666,157.556015 
	C70.989746,144.993423 70.056038,132.425903 68.861282,119.883530 
	C68.730354,118.509056 67.008896,117.286102 65.834549,115.736969 
	C64.416794,114.643959 63.189632,113.806847 61.962471,112.969734 
	C61.935974,112.392937 61.909477,111.816147 61.965141,110.811020 
	C67.920418,113.253822 73.793541,116.124962 79.889709,119.243988 
z"/>
<path fill="#E6E719" opacity="1.000000" stroke="none" 
	d="
M79.350616,206.341949 
	C81.296410,204.153122 83.569611,201.936676 86.033737,199.445862 
	C91.356140,196.664200 96.487617,194.156937 101.821655,191.390045 
	C108.464607,188.205475 114.904999,185.280502 121.973816,182.051025 
	C124.979378,180.563751 127.357559,179.383087 129.733475,178.197830 
	C138.354202,173.897263 146.992538,169.631332 155.580978,165.267212 
	C157.629776,164.226135 160.716888,162.558914 156.845810,160.514786 
	C144.677795,154.089478 132.274521,148.109695 119.962334,141.957397 
	C118.854012,140.661301 117.745689,139.365189 116.835632,138.002838 
	C129.495148,144.033905 141.950348,150.143600 154.421738,156.220154 
	C157.692078,157.813599 161.012558,159.304169 164.665207,160.906509 
	C165.292313,161.430649 165.564224,161.890274 165.969025,162.579468 
	C158.491180,166.663956 150.880432,170.518875 143.034195,174.633835 
	C122.474541,184.991379 102.150131,195.088364 81.827248,205.188400 
	C81.103157,205.548264 80.394089,205.938339 79.350616,206.341949 
z"/>
<path fill="#FFE800" opacity="1.000000" stroke="none" 
	d="
M110.772881,134.773376 
	C108.754204,134.264954 106.507881,133.494553 104.122528,132.425812 
	C106.170753,132.922119 108.357994,133.716751 110.772881,134.773376 
z"/>
<path fill="#FFDC00" opacity="1.000000" stroke="none" 
	d="
M97.986786,130.003326 
	C96.439186,129.138840 94.891586,128.274353 93.241089,127.087692 
	C94.943909,127.316406 96.749626,127.867287 98.628685,128.879135 
	C98.480011,129.578873 98.241600,129.799942 97.986786,130.003326 
z"/>
<path fill="#FFE800" opacity="1.000000" stroke="none" 
	d="
M98.115128,130.251343 
	C98.241600,129.799942 98.480011,129.578873 98.860184,129.154419 
	C100.317329,129.754791 101.616333,130.540848 103.084305,131.617462 
	C102.122986,131.933563 100.992699,131.959122 99.439049,131.985046 
	C98.758286,131.490051 98.500870,130.994705 98.115128,130.251343 
z"/>
<path fill="#FFDC00" opacity="1.000000" stroke="none" 
	d="
M87.173325,123.585098 
	C86.601723,123.442734 85.943268,122.987030 85.158745,122.246338 
	C85.717278,122.398155 86.401871,122.834946 87.173325,123.585098 
z"/>
<path fill="#FFDC00" opacity="1.000000" stroke="none" 
	d="
M89.172134,124.621460 
	C88.995628,124.714287 88.701424,124.534843 88.204437,124.194435 
	C88.352577,124.138710 88.703514,124.243950 89.172134,124.621460 
z"/>
<path fill="#FFDC00" opacity="1.000000" stroke="none" 
	d="
M91.192566,125.608360 
	C91.013268,125.703842 90.711861,125.523293 90.202698,125.179695 
	C90.353447,125.121872 90.711960,125.227104 91.192566,125.608360 
z"/>
<path fill="#FFDC00" opacity="1.000000" stroke="none" 
	d="
M93.146957,126.654602 
	C92.972580,126.742012 92.686142,126.571198 92.202271,126.247681 
	C92.348190,126.195435 92.691544,126.295906 93.146957,126.654602 
z"/>
<path fill="#E6B60C" opacity="1.000000" stroke="none" 
	d="
M61.904675,113.438385 
	C63.189632,113.806847 64.416794,114.643959 65.632156,116.098740 
	C65.463478,122.830162 64.761612,128.988266 65.254845,135.049103 
	C66.583412,151.374420 68.348595,167.666092 70.090759,183.955032 
	C70.878860,191.323639 72.023369,198.654144 73.006180,206.001938 
	C72.508461,206.278992 72.010742,206.556030 71.000824,206.626801 
	C69.669731,203.440216 68.381729,200.502029 68.109711,197.472610 
	C66.590279,180.550674 65.352592,163.603546 63.887115,146.676407 
	C63.775871,145.391449 62.643894,144.194870 61.986389,142.957199 
	C61.939888,133.273804 61.893387,123.590416 61.904675,113.438385 
z"/>
<path fill="#D8A90D" opacity="1.000000" stroke="none" 
	d="
M61.912373,143.425537 
	C62.643894,144.194870 63.775871,145.391449 63.887115,146.676407 
	C65.352592,163.603546 66.590279,180.550674 68.109711,197.472610 
	C68.381729,200.502029 69.669731,203.440216 70.722046,206.694946 
	C69.494171,207.886261 68.032875,208.803162 66.268036,209.838440 
	C65.307274,202.748291 64.708603,195.533615 63.949860,188.335815 
	C63.769981,186.629440 63.053112,184.979645 62.257641,183.083267 
	C61.900803,169.873093 61.869576,156.883499 61.912373,143.425537 
z"/>
<path fill="#E6E719" opacity="1.000000" stroke="none" 
	d="
M77.299454,207.557861 
	C77.232681,207.347733 77.355591,207.227142 77.604752,207.054291 
	C77.808090,207.264786 77.727455,207.479904 77.299454,207.557861 
z"/>
<path fill="#FFE800" opacity="1.000000" stroke="none" 
	d="
M119.869858,142.327850 
	C132.274521,148.109695 144.677795,154.089478 156.845810,160.514786 
	C160.716888,162.558914 157.629776,164.226135 155.580978,165.267212 
	C146.992538,169.631332 138.354202,173.897263 129.733475,178.197830 
	C127.357559,179.383087 124.979378,180.563751 122.274353,181.879639 
	C118.341820,179.684219 117.541321,176.010818 117.573822,172.160828 
	C117.657097,162.297348 116.304573,152.311646 119.869858,142.327850 
z"/>
<path fill="#F0BF08" opacity="1.000000" stroke="none" 
	d="
M73.339111,205.893799 
	C72.023369,198.654144 70.878860,191.323639 70.090759,183.955032 
	C68.348595,167.666092 66.583412,151.374420 65.254845,135.049103 
	C64.761612,128.988266 65.463478,122.830162 65.822746,116.354645 
	C67.008896,117.286102 68.730354,118.509056 68.861282,119.883530 
	C70.056038,132.425903 70.989746,144.993423 71.968666,157.556015 
	C73.102165,172.102493 74.261604,186.647568 75.233063,201.205063 
	C75.332191,202.690598 74.221390,204.256851 73.339111,205.893799 
z"/>
</svg>