<?xml version="1.0" encoding="UTF-8"?>
<svg id="Layer_1" data-name="Layer 1" xmlns="http://www.w3.org/2000/svg" xmlns:xlink="http://www.w3.org/1999/xlink" viewBox="0 0 1080 1080">
  <defs>
    <style>
      .cls-1 {
        fill: url(#linear-gradient);
      }

      .cls-1, .cls-2, .cls-3, .cls-4, .cls-5, .cls-6 {
        stroke-width: 0px;
      }

      .cls-2 {
        fill: url(#linear-gradient-2);
      }

      .cls-3 {
        fill: url(#linear-gradient-3);
      }

      .cls-4 {
        fill: #2c68ae;
      }

      .cls-5 {
        fill: #58595b;
      }

      .cls-6 {
        fill: #04a583;
      }
    </style>
    <linearGradient id="linear-gradient" x1="479.59" y1="6164.85" x2="501.94" y2="6129.08" gradientTransform="translate(0 6576.15) scale(1 -1)" gradientUnits="userSpaceOnUse">
      <stop offset="0" stop-color="#1c325f"/>
      <stop offset=".19" stop-color="#1d3868" stop-opacity=".88"/>
      <stop offset=".51" stop-color="#224980" stop-opacity=".57"/>
      <stop offset=".94" stop-color="#2a64a8" stop-opacity=".07"/>
      <stop offset="1" stop-color="#2c68ae" stop-opacity="0"/>
    </linearGradient>
    <linearGradient id="linear-gradient-2" x1="398.91" y1="377.25" x2="548.7" y2="377.25" gradientUnits="userSpaceOnUse">
      <stop offset="0" stop-color="#f6b21a"/>
      <stop offset=".18" stop-color="#f6c41a"/>
      <stop offset=".47" stop-color="#f6da1a"/>
      <stop offset=".75" stop-color="#f6e71a"/>
      <stop offset="1" stop-color="#f6ec1b"/>
    </linearGradient>
    <linearGradient id="linear-gradient-3" x1="391.58" y1="377.88" x2="443.11" y2="373.37" gradientUnits="userSpaceOnUse">
      <stop offset="0" stop-color="#a57d2d"/>
      <stop offset=".02" stop-color="#a7802c" stop-opacity=".97"/>
      <stop offset=".19" stop-color="#bfa127" stop-opacity=".67"/>
      <stop offset=".37" stop-color="#d3bc22" stop-opacity=".43"/>
      <stop offset=".54" stop-color="#e2d11f" stop-opacity=".24"/>
      <stop offset=".7" stop-color="#eddf1c" stop-opacity=".11"/>
      <stop offset=".86" stop-color="#f3e81b" stop-opacity=".03"/>
      <stop offset="1" stop-color="#f6ec1b" stop-opacity="0"/>
    </linearGradient>
  </defs>
  <g>
    <g>
      <path class="cls-6" d="m285.16,688.75l-23.76,23.07c-5.12-6.18-11.39-10.94-18.79-14.28-7.41-3.34-15.44-5.01-24.11-5.01-12.13,0-23.76,3.26-34.87,9.77-11.11,6.51-19.76,15.13-25.94,25.85-6.19,10.72-9.28,22.14-9.28,34.26,0,16.49,5.44,30.2,16.31,41.12,10.87,10.93,24.82,16.39,41.84,16.39,18.2,0,33.96-5.53,47.28-16.59l19.27,26.61c-19.78,14.61-42.67,21.91-68.67,21.91-18.28,0-33.82-3.63-46.63-10.89-12.81-7.26-23.09-17.93-30.85-32-7.76-14.07-11.64-29.32-11.64-45.74,0-17.58,4.59-34.43,13.77-50.57,9.18-16.13,21.61-28.84,37.29-38.13,15.68-9.28,32.78-13.92,51.3-13.92,26,0,48.5,9.39,67.49,28.16Z"/>
      <path class="cls-6" d="m411.23,712.59h31.6l-17.93,134.68h-31.24l1.89-14.47c-6.86,6.68-13.27,11.34-19.23,13.97-5.96,2.64-12.64,3.96-20.06,3.96-17.04,0-30.59-6.56-40.65-19.68-10.06-13.12-15.09-28.39-15.09-45.8,0-13.29,3.22-25.93,9.65-37.94,6.44-12.01,15.08-21.37,25.93-28.1,10.85-6.73,22.19-10.09,34.03-10.09,7.95,0,15.28,1.91,21.99,5.73,6.71,3.82,12.26,9.39,16.63,16.7l2.47-18.96Zm-47.39,108.69c7.77,0,14.55-1.81,20.34-5.44,5.79-3.63,10.64-9.31,14.57-17.05,3.92-7.75,5.89-15.65,5.89-23.73,0-10.67-2.96-19.25-8.86-25.74-5.91-6.49-13.7-9.74-23.37-9.74-11.26,0-20.81,4.33-28.66,13-7.85,8.66-11.77,19.85-11.77,33.55,0,10.56,2.97,19.06,8.92,25.5,5.95,6.44,13.6,9.65,22.95,9.65Z"/>
      <path class="cls-6" d="m479.59,660.59h31.49l-24.35,186.67h-31.49l24.35-186.67Z"/>
      <path class="cls-6" d="m530.36,712.59h31.26l-17.33,134.68h-31.49l17.57-134.68Zm21.67-55.09c5.36,0,9.95,2,13.77,6,3.82,4,5.73,8.81,5.73,14.42s-1.91,10.42-5.73,14.42c-3.82,4.01-8.41,6-13.77,6s-9.95-2-13.77-6c-3.82-4-5.73-8.81-5.73-14.42s1.91-10.42,5.73-14.42c3.82-4,8.41-6,13.77-6Z"/>
      <path class="cls-6" d="m606.22,847.27h-31.49l24.35-186.67h31.13l-8.56,66.58c6.8-6.8,13.15-11.51,19.06-14.13,5.9-2.62,12.53-3.92,19.89-3.92,16.89,0,30.32,6.56,40.29,19.68,9.97,13.12,14.96,28.35,14.96,45.68,0,13.29-3.19,25.95-9.58,38-6.38,12.05-14.95,21.44-25.71,28.16-10.75,6.73-21.96,10.09-33.63,10.09-7.96,0-15.27-1.9-21.93-5.69-6.66-3.8-12.12-9.33-16.37-16.59l-2.42,18.82Zm46.73-108.81c-7.67,0-14.36,1.84-20.07,5.51-5.71,3.68-10.5,9.4-14.38,17.17-3.87,7.77-5.81,15.7-5.81,23.79,0,10.63,2.92,19.18,8.75,25.65,5.83,6.47,13.52,9.7,23.07,9.7,11.12,0,20.55-4.33,28.3-13,7.75-8.67,11.62-19.85,11.62-33.55,0-10.56-2.94-19.08-8.8-25.56-5.87-6.48-13.42-9.72-22.66-9.72Z"/>
      <path class="cls-6" d="m831.21,807.85l27.77,15.08c-6.22,8.57-14.48,15.35-24.76,20.33-10.28,4.98-21.69,7.47-34.22,7.47-19.62,0-35.09-5.78-46.39-17.33-11.31-11.55-16.96-26.9-16.96-46.05,0-21.87,7.07-40.38,21.22-55.52,14.14-15.14,31.22-22.72,51.24-22.72,12.06,0,22.79,2.77,32.21,8.29,9.41,5.53,16.84,13.58,22.28,24.14,5.44,10.56,8.15,22.03,8.15,34.41,0,3.88-.39,8.42-1.18,13.62h-102.59c.31,9.36,3.25,16.82,8.81,22.37,5.55,5.55,13.22,8.33,22.99,8.33,11.82,0,22.3-4.15,31.44-12.43Zm8.04-42.53c-2.36-8.25-6.31-14.5-11.82-18.76-5.51-4.25-12.17-6.37-19.97-6.37s-14.69,2.19-20.92,6.56c-6.22,4.38-10.95,10.56-14.18,18.57h66.9Z"/>
      <path class="cls-6" d="m900.07,712.59h28.12l-2.25,18.32c8.43-14.53,18.56-21.79,30.38-21.79,2.84,0,5.79.79,8.87,2.37l-11.54,30.06c-2.4-.9-4.16-1.36-5.28-1.36-6.15,0-11.65,3.73-16.48,11.2-4.83,7.47-8.65,22.55-11.45,45.24l-6.24,50.63h-31.7l17.57-134.68Z"/>
    </g>
    <g>
      <path class="cls-5" d="m114.81,945.21v-41.26h8.17c5.89,0,10.17.5,12.83,1.49,3.82,1.4,6.81,3.83,8.96,7.29,2.15,3.46,3.23,7.58,3.23,12.37,0,4.13-.85,7.77-2.56,10.91-1.71,3.14-3.92,5.46-6.64,6.95-2.72,1.5-6.54,2.24-11.45,2.24h-12.53Zm3.77-3.9h4.55c5.45,0,9.22-.36,11.33-1.06,2.96-1.01,5.29-2.83,6.99-5.45,1.7-2.62,2.54-5.83,2.54-9.63,0-3.98-.92-7.38-2.76-10.2-1.84-2.82-4.4-4.75-7.69-5.8-2.46-.78-6.53-1.18-12.18-1.18h-2.79v33.32Z"/>
      <path class="cls-5" d="m179.53,935.08l3.16,1.74c-1.04,2.13-2.23,3.85-3.59,5.16-1.36,1.31-2.89,2.31-4.58,2.99-1.7.68-3.62,1.02-5.76,1.02-4.75,0-8.47-1.63-11.15-4.89-2.68-3.26-4.02-6.95-4.02-11.07,0-3.87,1.13-7.32,3.4-10.35,2.88-3.85,6.73-5.78,11.55-5.78s8.93,1.97,11.9,5.92c2.11,2.79,3.18,6.27,3.22,10.43h-26.22c.07,3.54,1.15,6.45,3.24,8.72,2.09,2.27,4.67,3.4,7.75,3.4,1.48,0,2.93-.27,4.33-.81,1.4-.54,2.6-1.26,3.58-2.15.98-.89,2.05-2.34,3.19-4.33Zm0-8.22c-.5-2.09-1.23-3.77-2.19-5.02-.96-1.25-2.22-2.26-3.79-3.03-1.57-.77-3.23-1.15-4.96-1.15-2.86,0-5.32.96-7.37,2.89-1.5,1.4-2.64,3.51-3.41,6.31h21.72Z"/>
      <path class="cls-5" d="m190.09,902.91h3.75v42.3h-3.75v-42.3Z"/>
      <path class="cls-5" d="m202.93,902.13c.85,0,1.58.32,2.19.95.6.64.91,1.4.91,2.3s-.3,1.64-.91,2.27c-.6.64-1.33.95-2.19.95s-1.56-.32-2.16-.95c-.6-.64-.91-1.39-.91-2.27s.3-1.66.91-2.3c.6-.64,1.32-.95,2.16-.95Zm-1.86,12.57h3.75v30.52h-3.75v-30.52Z"/>
      <path class="cls-5" d="m209.85,914.69h3.99l9.78,22.24,9.66-22.24h4.02l-13.34,30.52h-.7l-13.42-30.52Z"/>
      <path class="cls-5" d="m267.53,935.08l3.16,1.74c-1.04,2.13-2.23,3.85-3.59,5.16-1.36,1.31-2.89,2.31-4.58,2.99-1.7.68-3.62,1.02-5.76,1.02-4.75,0-8.47-1.63-11.15-4.89-2.68-3.26-4.02-6.95-4.02-11.07,0-3.87,1.13-7.32,3.4-10.35,2.88-3.85,6.73-5.78,11.55-5.78s8.93,1.97,11.9,5.92c2.11,2.79,3.18,6.27,3.22,10.43h-26.22c.07,3.54,1.15,6.45,3.24,8.72,2.09,2.27,4.67,3.4,7.75,3.4,1.48,0,2.93-.27,4.33-.81,1.4-.54,2.6-1.26,3.58-2.15.98-.89,2.05-2.34,3.19-4.33Zm0-8.22c-.5-2.09-1.23-3.77-2.19-5.02-.96-1.25-2.22-2.26-3.79-3.03-1.57-.77-3.23-1.15-4.96-1.15-2.86,0-5.32.96-7.37,2.89-1.5,1.4-2.64,3.51-3.41,6.31h21.72Z"/>
      <path class="cls-5" d="m277.22,914.69h3.83v4.46c1.14-1.76,2.35-3.07,3.61-3.94,1.27-.87,2.59-1.31,3.96-1.31,1.03,0,2.14.35,3.32,1.04l-1.95,3.31c-.79-.36-1.45-.53-1.98-.53-1.25,0-2.45.54-3.61,1.61-1.16,1.08-2.04,2.75-2.65,5.01-.46,1.74-.7,5.25-.7,10.55v10.32h-3.83v-30.52Z"/>
      <path class="cls-5" d="m309.14,945.21l5.64-41.26h.64l16.01,33.86,15.86-33.86h.63l5.67,41.26h-3.86l-3.89-29.51-13.93,29.51h-1.01l-14.09-29.73-3.87,29.73h-3.8Z"/>
      <path class="cls-5" d="m374.51,913.91c4.49,0,8.21,1.7,11.16,5.11,2.68,3.1,4.02,6.78,4.02,11.02s-1.42,7.99-4.25,11.18c-2.84,3.19-6.48,4.78-10.93,4.78s-8.12-1.59-10.96-4.78c-2.84-3.19-4.25-6.91-4.25-11.18s1.34-7.89,4.02-10.99c2.95-3.42,6.68-5.13,11.19-5.13Zm-.01,3.84c-3.12,0-5.79,1.21-8.03,3.62-2.24,2.41-3.36,5.33-3.36,8.75,0,2.21.51,4.26,1.53,6.17,1.02,1.91,2.4,3.38,4.14,4.42,1.74,1.04,3.65,1.56,5.72,1.56s3.99-.52,5.72-1.56c1.74-1.04,3.12-2.51,4.14-4.42,1.02-1.91,1.53-3.96,1.53-6.17,0-3.42-1.12-6.34-3.37-8.75-2.25-2.41-4.92-3.62-8.02-3.62Z"/>
      <path class="cls-5" d="m395.21,914.69h3.83v4.46c1.14-1.76,2.35-3.07,3.61-3.94,1.27-.87,2.59-1.31,3.96-1.31,1.03,0,2.14.35,3.32,1.04l-1.95,3.31c-.79-.36-1.45-.53-1.98-.53-1.25,0-2.45.54-3.61,1.61-1.16,1.08-2.04,2.75-2.65,5.01-.46,1.74-.7,5.25-.7,10.55v10.32h-3.83v-30.52Z"/>
      <path class="cls-5" d="m437.66,935.08l3.16,1.74c-1.04,2.13-2.23,3.85-3.59,5.16-1.36,1.31-2.89,2.31-4.58,2.99-1.7.68-3.62,1.02-5.76,1.02-4.75,0-8.47-1.63-11.15-4.89-2.68-3.26-4.02-6.95-4.02-11.07,0-3.87,1.13-7.32,3.4-10.35,2.88-3.85,6.73-5.78,11.55-5.78s8.93,1.97,11.9,5.92c2.11,2.79,3.18,6.27,3.22,10.43h-26.22c.07,3.54,1.15,6.45,3.24,8.72,2.09,2.27,4.67,3.4,7.75,3.4,1.48,0,2.93-.27,4.33-.81,1.4-.54,2.6-1.26,3.58-2.15.98-.89,2.05-2.34,3.19-4.33Zm0-8.22c-.5-2.09-1.23-3.77-2.19-5.02-.96-1.25-2.22-2.26-3.79-3.03-1.57-.77-3.23-1.15-4.96-1.15-2.86,0-5.32.96-7.37,2.89-1.5,1.4-2.64,3.51-3.41,6.31h21.72Z"/>
      <path class="cls-5" d="m452.89,939.04c.91,0,1.69.34,2.33,1.01.64.67.96,1.5.96,2.47s-.32,1.77-.96,2.46c-.64.68-1.42,1.02-2.33,1.02s-1.69-.34-2.33-1.02c-.64-.68-.96-1.5-.96-2.46s.32-1.8.96-2.47c.64-.67,1.42-1.01,2.33-1.01Z"/>
      <path class="cls-5" d="m479.75,945.21v-41.26h8.17c5.89,0,10.17.5,12.83,1.49,3.82,1.4,6.81,3.83,8.96,7.29,2.15,3.46,3.23,7.58,3.23,12.37,0,4.13-.85,7.77-2.56,10.91-1.71,3.14-3.92,5.46-6.64,6.95-2.72,1.5-6.54,2.24-11.45,2.24h-12.53Zm3.77-3.9h4.55c5.45,0,9.22-.36,11.33-1.06,2.96-1.01,5.29-2.83,6.99-5.45,1.7-2.62,2.54-5.83,2.54-9.63,0-3.98-.92-7.38-2.76-10.2-1.84-2.82-4.4-4.75-7.69-5.8-2.46-.78-6.53-1.18-12.18-1.18h-2.79v33.32Z"/>
      <path class="cls-5" d="m544.48,935.08l3.16,1.74c-1.04,2.13-2.23,3.85-3.59,5.16-1.36,1.31-2.89,2.31-4.58,2.99-1.7.68-3.62,1.02-5.76,1.02-4.75,0-8.47-1.63-11.15-4.89-2.68-3.26-4.02-6.95-4.02-11.07,0-3.87,1.13-7.32,3.4-10.35,2.88-3.85,6.73-5.78,11.55-5.78s8.93,1.97,11.9,5.92c2.11,2.79,3.18,6.27,3.22,10.43h-26.22c.07,3.54,1.15,6.45,3.24,8.72,2.09,2.27,4.67,3.4,7.75,3.4,1.48,0,2.93-.27,4.33-.81,1.4-.54,2.6-1.26,3.58-2.15.98-.89,2.05-2.34,3.19-4.33Zm0-8.22c-.5-2.09-1.23-3.77-2.19-5.02-.96-1.25-2.22-2.26-3.79-3.03-1.57-.77-3.23-1.15-4.96-1.15-2.86,0-5.32.96-7.37,2.89-1.5,1.4-2.64,3.51-3.41,6.31h21.72Z"/>
      <path class="cls-5" d="m555.03,902.91h3.75v42.3h-3.75v-42.3Z"/>
      <path class="cls-5" d="m567.87,902.13c.85,0,1.58.32,2.19.95.6.64.91,1.4.91,2.3s-.3,1.64-.91,2.27c-.6.64-1.33.95-2.19.95s-1.56-.32-2.16-.95c-.6-.64-.91-1.39-.91-2.27s.3-1.66.91-2.3c.6-.64,1.32-.95,2.16-.95Zm-1.86,12.57h3.75v30.52h-3.75v-30.52Z"/>
      <path class="cls-5" d="m574.79,914.69h3.99l9.78,22.24,9.66-22.24h4.01l-13.34,30.52h-.7l-13.42-30.52Z"/>
      <path class="cls-5" d="m632.47,935.08l3.16,1.74c-1.03,2.13-2.23,3.85-3.59,5.16s-2.89,2.31-4.58,2.99c-1.7.68-3.62,1.02-5.76,1.02-4.75,0-8.47-1.63-11.15-4.89-2.68-3.26-4.02-6.95-4.02-11.07,0-3.87,1.13-7.32,3.4-10.35,2.88-3.85,6.73-5.78,11.55-5.78s8.93,1.97,11.9,5.92c2.11,2.79,3.18,6.27,3.22,10.43h-26.22c.07,3.54,1.15,6.45,3.24,8.72,2.09,2.27,4.67,3.4,7.75,3.4,1.48,0,2.92-.27,4.33-.81,1.4-.54,2.59-1.26,3.58-2.15.98-.89,2.05-2.34,3.19-4.33Zm0-8.22c-.5-2.09-1.23-3.77-2.19-5.02-.95-1.25-2.22-2.26-3.79-3.03-1.57-.77-3.23-1.15-4.96-1.15-2.86,0-5.32.96-7.37,2.89-1.5,1.4-2.64,3.51-3.41,6.31h21.72Z"/>
      <path class="cls-5" d="m642.17,914.69h3.83v4.46c1.14-1.76,2.35-3.07,3.62-3.94,1.27-.87,2.59-1.31,3.96-1.31,1.03,0,2.14.35,3.32,1.04l-1.95,3.31c-.79-.36-1.45-.53-1.98-.53-1.25,0-2.46.54-3.62,1.61-1.16,1.08-2.04,2.75-2.65,5.01-.46,1.74-.7,5.25-.7,10.55v10.32h-3.83v-30.52Z"/>
      <path class="cls-5" d="m675.91,903.95h22.58v4.04h-18.64v12.93h18.48v4.04h-18.48v16.21h18.48v4.04h-22.42v-41.26Z"/>
      <path class="cls-5" d="m701.35,914.69h4.5l7.75,11.17,7.67-11.17h4.51l-9.92,14.42,11.18,16.1h-4.57l-8.87-12.82-8.82,12.82h-4.47l11.04-16.07-9.99-14.44Z"/>
      <path class="cls-5" d="m759.27,921.03l-2.97,1.94c-2.57-3.57-6.07-5.36-10.51-5.36-3.55,0-6.49,1.2-8.84,3.59-2.34,2.39-3.52,5.29-3.52,8.71,0,2.22.54,4.31,1.62,6.27,1.08,1.96,2.56,3.48,4.44,4.57,1.88,1.08,3.99,1.62,6.32,1.62,4.28,0,7.77-1.79,10.49-5.36l2.97,2.04c-1.39,2.2-3.26,3.9-5.61,5.11-2.35,1.21-5.02,1.82-8.02,1.82-4.6,0-8.43-1.53-11.46-4.6-3.04-3.06-4.55-6.8-4.55-11.19,0-2.96.71-5.7,2.13-8.23,1.42-2.53,3.37-4.51,5.85-5.93,2.48-1.42,5.26-2.13,8.33-2.13,1.93,0,3.79.31,5.58.93,1.8.62,3.32,1.42,4.57,2.41,1.25.99,2.31,2.25,3.19,3.79Z"/>
      <path class="cls-5" d="m791.01,935.08l3.16,1.74c-1.03,2.13-2.23,3.85-3.59,5.16-1.36,1.31-2.89,2.31-4.58,2.99-1.7.68-3.62,1.02-5.76,1.02-4.75,0-8.47-1.63-11.15-4.89-2.68-3.26-4.02-6.95-4.02-11.07,0-3.87,1.13-7.32,3.4-10.35,2.88-3.85,6.73-5.78,11.55-5.78s8.93,1.97,11.9,5.92c2.11,2.79,3.18,6.27,3.22,10.43h-26.22c.07,3.54,1.15,6.45,3.24,8.72,2.09,2.27,4.67,3.4,7.75,3.4,1.48,0,2.92-.27,4.33-.81,1.4-.54,2.59-1.26,3.58-2.15.98-.89,2.05-2.34,3.19-4.33Zm0-8.22c-.5-2.09-1.23-3.77-2.19-5.02-.95-1.25-2.22-2.26-3.79-3.03-1.57-.77-3.23-1.15-4.96-1.15-2.86,0-5.32.96-7.37,2.89-1.5,1.4-2.64,3.51-3.41,6.31h21.72Z"/>
      <path class="cls-5" d="m801.56,902.91h3.75v42.3h-3.75v-42.3Z"/>
      <path class="cls-5" d="m812.54,902.91h3.75v42.3h-3.75v-42.3Z"/>
      <path class="cls-5" d="m848.61,935.08l3.16,1.74c-1.03,2.13-2.23,3.85-3.59,5.16-1.36,1.31-2.89,2.31-4.58,2.99-1.7.68-3.62,1.02-5.76,1.02-4.75,0-8.47-1.63-11.15-4.89-2.68-3.26-4.02-6.95-4.02-11.07,0-3.87,1.13-7.32,3.4-10.35,2.88-3.85,6.73-5.78,11.55-5.78s8.93,1.97,11.9,5.92c2.11,2.79,3.18,6.27,3.22,10.43h-26.22c.07,3.54,1.15,6.45,3.24,8.72,2.09,2.27,4.67,3.4,7.75,3.4,1.48,0,2.92-.27,4.33-.81,1.4-.54,2.59-1.26,3.58-2.15.98-.89,2.05-2.34,3.19-4.33Zm0-8.22c-.5-2.09-1.23-3.77-2.19-5.02-.95-1.25-2.22-2.26-3.79-3.03-1.57-.77-3.23-1.15-4.96-1.15-2.86,0-5.32.96-7.37,2.89-1.5,1.4-2.64,3.51-3.41,6.31h21.72Z"/>
      <path class="cls-5" d="m859.72,914.69h3.75v5.47c1.5-2.09,3.16-3.66,4.98-4.7,1.82-1.04,3.8-1.56,5.94-1.56s4.11.58,5.8,1.74c1.69,1.16,2.93,2.72,3.73,4.69.8,1.96,1.21,5.02,1.21,9.17v15.71h-3.75v-14.56c0-3.52-.14-5.86-.42-7.04-.43-2.02-1.27-3.54-2.5-4.56-1.23-1.02-2.84-1.53-4.82-1.53-2.27,0-4.3.79-6.09,2.36-1.8,1.57-2.98,3.52-3.55,5.83-.36,1.51-.54,4.28-.54,8.3v11.19h-3.75v-30.52Z"/>
      <path class="cls-5" d="m921.45,921.03l-2.97,1.94c-2.57-3.57-6.07-5.36-10.51-5.36-3.55,0-6.49,1.2-8.84,3.59-2.34,2.39-3.52,5.29-3.52,8.71,0,2.22.54,4.31,1.62,6.27,1.08,1.96,2.56,3.48,4.44,4.57,1.88,1.08,3.99,1.62,6.32,1.62,4.28,0,7.77-1.79,10.49-5.36l2.97,2.04c-1.39,2.2-3.26,3.9-5.61,5.11-2.35,1.21-5.02,1.82-8.02,1.82-4.6,0-8.43-1.53-11.46-4.6-3.04-3.06-4.55-6.8-4.55-11.19,0-2.96.71-5.7,2.13-8.23,1.42-2.53,3.37-4.51,5.85-5.93,2.48-1.42,5.26-2.13,8.33-2.13,1.93,0,3.79.31,5.58.93,1.8.62,3.32,1.42,4.57,2.41,1.25.99,2.31,2.25,3.19,3.79Z"/>
      <path class="cls-5" d="m953.18,935.08l3.16,1.74c-1.03,2.13-2.23,3.85-3.59,5.16-1.36,1.31-2.89,2.31-4.58,2.99-1.7.68-3.62,1.02-5.76,1.02-4.75,0-8.47-1.63-11.15-4.89-2.68-3.26-4.02-6.95-4.02-11.07,0-3.87,1.13-7.32,3.4-10.35,2.88-3.85,6.73-5.78,11.55-5.78s8.93,1.97,11.9,5.92c2.11,2.79,3.18,6.27,3.22,10.43h-26.22c.07,3.54,1.15,6.45,3.24,8.72,2.09,2.27,4.67,3.4,7.75,3.4,1.48,0,2.92-.27,4.33-.81,1.4-.54,2.59-1.26,3.58-2.15.98-.89,2.05-2.34,3.19-4.33Zm0-8.22c-.5-2.09-1.23-3.77-2.19-5.02-.95-1.25-2.22-2.26-3.79-3.03-1.57-.77-3.23-1.15-4.96-1.15-2.86,0-5.32.96-7.37,2.89-1.5,1.4-2.64,3.51-3.41,6.31h21.72Z"/>
    </g>
  </g>
  <g>
    <path class="cls-6" d="m681.06,292.14c0,6.46-4.01,12.34-10.44,15.82-20.33,11-121.92,69.22-121.92,69.22l-149.83-84.38,276.62-157.39c2.48-1.41,5.57.38,5.57,3.24v153.48Z"/>
    <path class="cls-4" d="m681.13,616.14v-153.81c0-6.26-3.83-12.07-10.11-15.33l-122.33-69.83-149.77,84.52s201.28,114.79,276.67,157.7c2.48,1.41,5.54-.39,5.54-3.25Z"/>
    <polygon class="cls-1" points="548.7 377.19 582.3 396.17 436.61 483.15 398.91 461.71 548.7 377.19"/>
    <polygon class="cls-2" points="398.91 292.82 398.91 461.68 548.7 377.19 398.91 292.82"/>
    <polygon class="cls-3" points="398.91 292.82 398.91 461.67 437.34 438.92 437.34 315.55 398.91 292.82"/>
  </g>
</svg>